<svg id="Layer_1" data-name="Layer 1" xmlns="http://www.w3.org/2000/svg" viewBox="0 0 19 21"><defs><style>.cls-1{fill:#ffdb1e;}.cls-2{fill:#fcee90;}.cls-3{fill:none;}.cls-4{fill:#616064;}.cls-5{fill:#565659;}.cls-6{fill:#fff;}.cls-7{fill:#bf3c1a;}.cls-8{fill:#ff5023;}.cls-9{fill:#dedde0;}.cls-10{fill:#cdcdd0;}</style></defs><path class="cls-1" d="M19,9.5C19,15,9,21,9.5,21S0,15,0,9.5a9.5,9.5,0,0,1,19,0Z"/><ellipse class="cls-2" cx="9.5" cy="9.13" rx="7.62" ry="7.87" transform="translate(-0.42 17.8) rotate(-85)"/><line class="cls-3" x1="7.14" y1="8" x2="8.14" y2="9"/><path class="cls-4" d="M4.68,10.57A1.28,1.28,0,0,1,6,9.29v-1a2.25,2.25,0,0,0,0,4.5v-1A1.28,1.28,0,0,1,4.68,10.57Z"/><path class="cls-5" d="M6.18,9.31l.41-.9A2.18,2.18,0,0,0,6,8.32v1A.78.78,0,0,1,6.18,9.31Z"/><path class="cls-5" d="M6,11.86v1a2.26,2.26,0,0,0,2.25-2.08h-1A1.29,1.29,0,0,1,6,11.86Z"/><path class="cls-5" d="M7.44,8.88,7,9.77h1A2.26,2.26,0,0,0,7.44,8.88Z"/><path class="cls-6" d="M4.68,10.57a1.29,1.29,0,0,0,2.56.17h-1l-.43-.68.33-.74a.78.78,0,0,0-.22,0A1.28,1.28,0,0,0,4.68,10.57Z"/><path class="cls-4" d="M11.75,10.57a1.26,1.26,0,0,1,.51-1l-.23-1a2.25,2.25,0,0,0,1,4.26v-1A1.29,1.29,0,0,1,11.75,10.57Z"/><path class="cls-5" d="M13,8.32H13l.07.27.17.71A1.29,1.29,0,0,1,13,11.86v1a2.25,2.25,0,0,0,0-4.5Z"/><path class="cls-6" d="M12.55,10.75l-.29-1.2a1.26,1.26,0,0,0-.51,1,1.29,1.29,0,1,0,2.57,0A1.28,1.28,0,0,0,13.21,9.3l.34,1.45Z"/><polygon class="cls-7" points="12.55 10.75 13.55 10.75 13.21 9.3 13.04 8.59 12.97 8.32 12.36 5.75 13.36 5.75 13.36 4.79 11.14 4.79 11.67 7.04 9.5 7.04 9.5 8 11.9 8 12.03 8.56 12.26 9.54 12.55 10.75"/><path class="cls-8" d="M8.86,7H7.22L6.59,8.41l-.41.9-.33.74.43.68H8.66a1,1,0,0,1-.12-.49.89.89,0,0,1,.13-.48H7l.41-.89.45-1,.83,1.81a1,1,0,0,1,.78-.4h.09L9,8H9.5V7Z"/><path class="cls-9" d="M8.72,9.69l-.05.08a.89.89,0,0,0-.13.48,1,1,0,0,0,.12.49,1,1,0,0,0,.84.48V9.29A1,1,0,0,0,8.72,9.69Z"/><path class="cls-10" d="M9.5,11.22a1,1,0,0,0,.09-1.93H9.5Z"/><polygon class="cls-5" points="8.86 6.08 6.29 6.08 6.29 7.04 7.22 7.04 8.86 7.04 8.86 6.08"/></svg>