<?xml version="1.0" encoding="UTF-8"?><svg id="a" xmlns="http://www.w3.org/2000/svg" viewBox="0 0 19 21"><defs><style>.b{fill:#fff;}.c{stroke:#00454a;}.c,.d{stroke-miterlimit:10;stroke-width:.25px;}.c,.d,.e{fill:none;}.f{fill:#00454a;}.g{fill:#00708a;}.h{fill:#331e00;opacity:.42;}.d{stroke:#0071bc;}.i{fill:#6ac6ff;}.j{fill:#d48300;}</style></defs><path class="g" d="M19,9.5c0,5.5-10,11.5-9.5,11.5S0,15,0,9.5,4.25,0,9.5,0s9.5,4.25,9.5,9.5Z"/><g><ellipse class="i" cx="9.5" cy="9.13" rx="7.62" ry="7.87" transform="translate(-.42 17.8) rotate(-85)"/><path class="d" d="M16.48,11.19c-.61-.18-1.4-.31-2,0-.56,.28-.55,.74-1,.82-.73,.13-1.28-.95-2-.82-.52,.1-.48,.72-1,.82-.72,.13-1.3-.96-2-.82-.53,.11-.59,.82-1,.82-.43,0-.58-.82-1-.82s-.58,.82-1,.82-.54-.77-1-.82c-.41-.04-.54,.77-1,.82-.29,.03-.62-.25-1-.82"/><path class="d" d="M16.48,8.68c-.61-.18-1.4-.31-2,0-.56,.28-.55,.74-1,.82-.73,.13-1.28-.95-2-.82-.52,.1-.48,.72-1,.82-.72,.13-1.3-.96-2-.82-.53,.11-.59,.82-1,.82-.43,0-.58-.82-1-.82s-.58,.82-1,.82-.54-.77-1-.82c-.41-.04-.54,.77-1,.82-.29,.03-.62-.25-1-.82"/><path class="d" d="M14.96,4.09c-.47-.09-1.09-.15-1.57,0-.44,.14-.43,.37-.78,.41-.57,.07-1-.48-1.57-.41-.41,.05-.37,.36-.78,.41-.57,.07-1.02-.48-1.57-.41-.42,.05-.46,.41-.78,.41-.34,0-.45-.41-.78-.41s-.45,.41-.78,.41-.42-.39-.78-.41c-.32-.02-.42,.39-.78,.41-.23,.01-.49-.12-.78-.41"/><path class="d" d="M16.48,6.19c-.61-.07-1.4-.12-2,0-.56,.11-.55,.28-1,.31-.73,.05-1.28-.37-2-.31-.52,.04-.48,.28-1,.31-.72,.05-1.3-.37-2-.31-.53,.04-.59,.32-1,.31-.43,0-.58-.31-1-.31s-.58,.31-1,.31-.54-.3-1-.31c-.41-.01-.54,.3-1,.31-.29,.01-.62-.09-1-.31"/><path class="d" d="M15.48,14.09c-.52-.09-1.2-.15-1.71,0-.48,.14-.47,.37-.86,.41-.63,.07-1.1-.48-1.71-.41-.45,.05-.41,.36-.86,.41-.62,.07-1.12-.48-1.71-.41-.46,.05-.51,.41-.86,.41-.37,0-.5-.41-.86-.41s-.5,.41-.86,.41-.46-.39-.86-.41c-.35-.02-.46,.39-.86,.41-.25,.01-.54-.12-.86-.41"/><path class="h" d="M11.03,9.85c.43,2.64-1.48,5.65-1.48,5.65,0,0-2-2.86-1.52-5.65,.5-2.94,1.52-4.85,1.52-4.85,0,0,1,1.91,1.48,4.85Z"/><g><path class="j" d="M10.71,9.08c.43,2.77-1.48,5.92-1.48,5.92,0,0-2-3-1.52-5.92,.5-3.08,1.52-5.08,1.52-5.08,0,0,1,2,1.48,5.08Z"/><path class="f" d="M8.24,9.56c0-.43,.45-1.56,1-1.56s1,1.13,1,1.56-.45,.07-1,.07-1,.36-1-.07Z"/><circle class="b" cx="9.24" cy="10" r="1"/></g><g><line class="c" x1="7.09" y1="8.38" x2="11.7" y2="12.99"/><path class="b" d="M6.8,7.3c.56,.56,.84,1.19,.62,1.41s-.85-.06-1.41-.62-.16-.52,.06-.74,.18-.62,.74-.06Z"/><path class="b" d="M11.61,13.7c-.56-.56-.84-1.19-.62-1.41s.85,.06,1.41,.62,.16,.52-.06,.74-.18,.62-.74,.06Z"/></g><line class="e" x1="6.5" y1="8" x2="7.5" y2="9"/></g></svg>