<svg version="1.1" id="Uploaded to svgrepo.com" xmlns="http://www.w3.org/2000/svg" xmlns:xlink="http://www.w3.org/1999/xlink" x="0px" y="0px"
	 width="32px" height="32px" viewBox="0 0 32 32" style="enable-background:new 0 0 32 32;" xml:space="preserve">
<style type="text/css">
	.linesandangles_een{fill:#38D5BC;}
</style>
<path class="linesandangles_een" d="M26,21h-6v2H4v2h16v2h6v-2h2v-2h-2V21z M24,25h-2v-2h2V25z M12,13H6v2H4v2h2v2h6v-2h16v-2H12V13
	z M10,17H8v-2h2V17z M22,7V5h-6v2H4v2h12v2h6V9h6V7H22z M20,9h-2V7h2V9z"/>
</svg>