<svg id="Layer_1" data-name="Layer 1" xmlns="http://www.w3.org/2000/svg" viewBox="0 0 19 21"><defs><style>.cls-1{fill:#da2c2d;}.cls-2{fill:#ff7d81;}.cls-3{fill:none;}.cls-4{fill:#80d3cf;}.cls-5{fill:#fff;}.cls-6{fill:#34b6d0;}.cls-7{fill:#ff6a5e;}.cls-8{fill:#311363;}</style></defs><path class="cls-1" d="M19,9.5C19,15,9,21,9.5,21S0,15,0,9.5a9.5,9.5,0,0,1,19,0Z"/><ellipse class="cls-2" cx="9.5" cy="9.13" rx="7.62" ry="7.87" transform="translate(-0.42 17.8) rotate(-85)"/><line class="cls-3" x1="6.78" y1="8" x2="7.78" y2="9"/><path class="cls-4" d="M10.58,4.56H8.42a3.1,3.1,0,0,0-3.09,3.1V8.8a3.09,3.09,0,0,0,3.09,3.09h2.16A3.09,3.09,0,0,0,13.67,8.8V7.66A3.1,3.1,0,0,0,10.58,4.56Z"/><path class="cls-5" d="M13.17,7.66h-.34A2.26,2.26,0,0,0,10.58,5.4V5.06A2.61,2.61,0,0,1,13.17,7.66Z"/><path class="cls-6" d="M5.33,8.23V8.8a3.09,3.09,0,0,0,3.09,3.09h2.16A3.09,3.09,0,0,0,13.67,8.8V8.23Z"/><rect class="cls-5" x="11.28" y="8.73" width="1.71" height="0.33"/><rect class="cls-5" x="9.77" y="8.73" width="1.07" height="0.33"/><circle class="cls-7" cx="6.11" cy="13.64" r="1.03"/><rect class="cls-6" x="8.43" y="3.78" width="2.13" height="0.78"/><path class="cls-8" d="M6.11,13.1a.54.54,0,1,0,.53.54A.54.54,0,0,0,6.11,13.1Zm0,.74a.2.2,0,1,1,.2-.2A.2.2,0,0,1,6.11,13.84Z"/><path class="cls-8" d="M14.44,7.73V7.39h-.62a3.26,3.26,0,0,0-3.09-3V4h.55V3.62H7.72V4h.55V4.4a3.26,3.26,0,0,0-3.09,3H4.56v.34h.61v.33H4.56v.33h.61V8.8a3.26,3.26,0,0,0,1.51,2.75l-.29.92a1.33,1.33,0,0,0-.28,0,1.2,1.2,0,0,0,0,2.4,1.2,1.2,0,0,0,1.2-1.2,1,1,0,0,0,0-.25h5.28L13,14.72l.32-.1-1-3.07A3.26,3.26,0,0,0,13.83,8.8V8.39h.61V8.06h-.61V7.73ZM10.4,4V4.4H8.6V4ZM6.11,14.5A.87.87,0,1,1,7,13.64.87.87,0,0,1,6.11,14.5Zm6.13-2.11H9.77v.33h2.57l.11.34H7.16a1.22,1.22,0,0,0-.46-.47L7,11.72a3.28,3.28,0,0,0,1.44.34h2.16A3.32,3.32,0,0,0,12,11.72ZM13.5,8.8a2.92,2.92,0,0,1-2.92,2.92H8.42A2.92,2.92,0,0,1,5.5,8.8V8.39h1V8.06h-1v-.4A2.93,2.93,0,0,1,8.42,4.73h2.16A2.93,2.93,0,0,1,13.5,7.66v.4H6.92v.33H13.5V8.8Z"/></svg>