<svg id="Layer_1" data-name="Layer 1" xmlns="http://www.w3.org/2000/svg" viewBox="0 0 19 21"><defs><style>.cls-1{fill:#f7931e;}.cls-2{fill:#fbbf6b;}.cls-3{fill:none;}.cls-4{fill:#95d600;}.cls-5{fill:#333e48;}.cls-10,.cls-6,.cls-8{fill:#222;isolation:isolate;}.cls-6{opacity:0.5;}.cls-7{fill:#a4a9ad;}.cls-8{opacity:0.2;}.cls-9{fill:#d8d2c4;}.cls-10{opacity:0.1;}</style></defs><path class="cls-1" d="M19,9.5C19,15,9,21,9.5,21S0,15,0,9.5a9.5,9.5,0,0,1,19,0Z"/><ellipse class="cls-2" cx="9.5" cy="9.13" rx="7.62" ry="7.87" transform="translate(-0.42 17.8) rotate(-85)"/><line class="cls-3" x1="6.85" y1="8" x2="7.85" y2="9"/><path class="cls-4" d="M12,12.71a1.36,1.36,0,0,0-.4-.85,1.23,1.23,0,0,1,.88.39s.2-.36.14-.44c.21,0,.42.32.48.51a3.58,3.58,0,0,1,.47-.58,1.48,1.48,0,0,0,0,.64.73.73,0,0,1,.71-.1c-.14.15-.27.22-.27.43Z"/><rect class="cls-5" x="4.37" y="4.9" width="0.81" height="7.81"/><rect class="cls-6" x="4.37" y="8.42" width="0.81" height="0.37"/><rect class="cls-6" x="4.37" y="7.23" width="0.81" height="0.37"/><rect class="cls-6" x="4.37" y="6.03" width="0.81" height="0.37"/><rect class="cls-6" x="4.37" y="9.99" width="0.81" height="0.48"/><rect class="cls-7" x="4.18" y="12.23" width="1.18" height="0.49"/><rect class="cls-8" x="4.18" y="12.23" width="0.59" height="0.49"/><rect class="cls-5" x="13.82" y="4.9" width="0.81" height="7.81"/><rect class="cls-6" x="13.82" y="8.42" width="0.81" height="0.37"/><rect class="cls-6" x="13.82" y="7.23" width="0.81" height="0.37"/><rect class="cls-6" x="13.82" y="6.03" width="0.81" height="0.37"/><rect class="cls-6" x="13.82" y="9.99" width="0.81" height="0.48"/><rect class="cls-7" x="13.64" y="12.23" width="1.18" height="0.49"/><rect class="cls-8" x="13.64" y="12.23" width="0.59" height="0.49"/><rect class="cls-9" x="3.78" y="9.19" width="11.45" height="0.9"/><rect class="cls-10" x="3.78" y="9.19" width="5.72" height="0.9"/><rect class="cls-9" x="4.06" y="7.88" width="10.87" height="0.74"/><rect class="cls-10" x="4.06" y="7.88" width="5.44" height="0.74"/><circle class="cls-5" cx="4.77" cy="8.25" r="0.13"/><circle class="cls-5" cx="14.23" cy="8.25" r="0.13"/><rect class="cls-9" x="4.06" y="6.69" width="10.87" height="0.74"/><rect class="cls-10" x="4.06" y="6.69" width="5.44" height="0.74"/><circle class="cls-5" cx="4.77" cy="7.06" r="0.13"/><circle class="cls-5" cx="14.23" cy="7.06" r="0.13"/><rect class="cls-9" x="4.06" y="5.5" width="10.87" height="0.74"/><rect class="cls-10" x="4.06" y="5.5" width="5.44" height="0.74"/><circle class="cls-5" cx="4.77" cy="5.87" r="0.13"/><circle class="cls-5" cx="14.23" cy="5.87" r="0.13"/><path class="cls-4" d="M5.08,12.71a1.28,1.28,0,0,0-.39-.81,1.16,1.16,0,0,1,.85.37s.19-.34.13-.42c.2,0,.4.3.46.49a2.9,2.9,0,0,1,.45-.56,1.24,1.24,0,0,0,0,.58A1.28,1.28,0,0,1,7.31,12a1.25,1.25,0,0,0-.25.68Z"/></svg>