<svg id="Layer_1" data-name="Layer 1" xmlns="http://www.w3.org/2000/svg" viewBox="0 0 19 21"><defs><style>.cls-1{fill:#999;}.cls-2{fill:#e6e6e6;}.cls-3{fill:none;}.cls-4{fill:#ffbcab;}.cls-5{fill:#315591;}.cls-6{fill:#ff9478;}.cls-7{fill:#52a2e7;}.cls-8{fill:#4675cf;}.cls-9{fill:#e5e5e5;}.cls-10{fill:#acaab1;}</style></defs><path class="cls-1" d="M19,9.5C19,15,9,21,9.5,21S0,15,0,9.5a9.5,9.5,0,0,1,19,0Z"/><ellipse class="cls-2" cx="9.5" cy="9.13" rx="7.62" ry="7.87" transform="translate(-0.42 17.8) rotate(-85)"/><line class="cls-3" x1="6.62" y1="8" x2="7.62" y2="9"/><path class="cls-4" d="M13.07,6.28a1.22,1.22,0,0,0-2.24.91l-.05,0-.34-.56L9.62,5.31l.78-1.38a.16.16,0,0,0-.07-.23h0A.83.83,0,0,0,9.22,4L8.6,5a.61.61,0,0,0,0,.61l.55,1a.17.17,0,0,1,0,.21l-2.44,2v.9h4.61V9.27a.61.61,0,0,0,.21-.85l-.31-.52.05-.05a1.23,1.23,0,0,0,1.84-1.57Z"/><path class="cls-5" d="M13.07,6.28a1.22,1.22,0,0,0-1.68-.42,1.24,1.24,0,0,0-.46.48,5.92,5.92,0,0,0,2.29.82A1.2,1.2,0,0,0,13.07,6.28Z"/><path class="cls-6" d="M11.46,8.35H7.2l-.54.45v.9h4.62V9.27a.62.62,0,0,0,.21-.85Z"/><path class="cls-7" d="M15.6,9.07a1,1,0,0,0-1.34,0h0a1,1,0,0,1-1.35,0h0a1,1,0,0,0-1.36,0h0a1,1,0,0,1-1.35,0h0a1,1,0,0,0-1.35,0h0a1,1,0,0,1-1.34,0l0,0a1,1,0,0,0-1.35,0h0a1,1,0,0,1-1.35,0h0a.94.94,0,0,0-1.35,0v3.62c0-.06,12.2,0,12.2,0V9.09"/><path class="cls-8" d="M8.16,11.14a1.16,1.16,0,0,1-.8-.32l0,0a.77.77,0,0,0-1.08,0h0a.2.2,0,0,1-.27,0,.19.19,0,0,1,0-.26H6a1.15,1.15,0,0,1,1.61,0l0,0a.77.77,0,0,0,1.08,0h0a1.15,1.15,0,0,1,1.61,0,.77.77,0,0,0,1.09,0,1.16,1.16,0,0,1,1.62,0h0a.19.19,0,0,1,0,.26.2.2,0,0,1-.27,0h0a.76.76,0,0,0-1.08,0,1.16,1.16,0,0,1-1.62,0A.77.77,0,0,0,9,10.8H9A1.13,1.13,0,0,1,8.16,11.14Z"/><rect class="cls-9" x="3.4" y="12.44" width="12.21" height="1.02"/><rect class="cls-10" x="8.55" y="12.44" width="1.88" height="1.03"/><rect class="cls-10" x="4.78" y="12.44" width="1.88" height="1.03"/><rect class="cls-10" x="12.31" y="12.44" width="1.88" height="1.03"/><rect class="cls-8" x="3.39" y="11.85" width="12.2" height="0.59"/></svg>