<svg id="Layer_1" data-name="Layer 1" xmlns="http://www.w3.org/2000/svg" viewBox="0 0 19 21"><defs><style>.cls-1{fill:#1e8250;}.cls-2{fill:#7fb68c;}.cls-3{fill:none;}.cls-4{fill:#ffd6cf;}.cls-5{fill:#831232;opacity:0.32;}.cls-13,.cls-5{isolation:isolate;}.cls-6{fill:#998269;}.cls-7{fill:#836f5a;}.cls-8{fill:#2c4bc7;}.cls-9{opacity:0.53;}.cls-10{fill:#2b5476;}.cls-11,.cls-13{fill:#aa6518;}.cls-12{fill:#ffb057;}.cls-13{opacity:0.48;}.cls-14{fill:#c71c4b;}.cls-15{fill:#74a0ff;}.cls-16{fill:#d8edde;}.cls-17{fill:#c9ede8;}</style></defs><path class="cls-1" d="M19,9.5C19,15,9,21,9.5,21S0,15,0,9.5a9.5,9.5,0,0,1,19,0Z"/><ellipse class="cls-2" cx="9.5" cy="9.13" rx="7.62" ry="7.87" transform="translate(-0.42 17.8) rotate(-85)"/><line class="cls-3" x1="6.96" y1="8" x2="7.96" y2="9"/><polygon class="cls-4" points="9.82 6.21 9.95 5.34 9.23 5.29 9.09 6.08 9.82 6.21"/><polygon class="cls-5" points="9.88 5.89 9.95 5.34 9.24 5.26 9.14 5.76 9.88 5.89"/><rect class="cls-6" x="12.9" y="5.13" width="0.49" height="4.18"/><rect class="cls-6" x="12.9" y="8.48" width="0.5" height="6.55"/><rect class="cls-7" x="12.9" y="8.21" width="0.49" height="1.1"/><path class="cls-8" d="M5.64,13l1.63-1.57.59-2h.9L8.11,11.8A.56.56,0,0,1,8,12L8,12,6.05,13.88Z"/><g class="cls-9"><polygon class="cls-10" points="7.86 9.44 7.63 10.22 8.54 10.22 8.76 9.44 7.86 9.44"/></g><path class="cls-4" d="M10.53,3.39a.57.57,0,0,0-.4-.18l-.67,0a.58.58,0,0,0-.59.55l0,1.18a.54.54,0,0,0,.15.4.58.58,0,0,0,.4.19l.67,0h0a.58.58,0,0,0,.39-.15.62.62,0,0,0,.18-.4l0-1.17A.56.56,0,0,0,10.53,3.39Z"/><path class="cls-11" d="M7.33,5.28l-.56-.14a.11.11,0,0,0-.13.09L6.33,6.91a.14.14,0,0,0,.11.16L7,7.2Z"/><path class="cls-12" d="M7.8,8.43l-.92-.16A.23.23,0,0,1,6.69,8l.57-3.25a.23.23,0,0,1,.27-.19l.92.16A.25.25,0,0,1,8.64,5L8.07,8.24A.24.24,0,0,1,7.8,8.43Z"/><path class="cls-13" d="M8.45,4.72h0L7.85,7.91a.22.22,0,0,1-.26.18L6.7,7.94V8a.23.23,0,0,0,.19.27l.92.16a.24.24,0,0,0,.27-.19L8.64,5A.25.25,0,0,0,8.45,4.72Z"/><path class="cls-14" d="M10.64,3.55a.91.91,0,0,0-.11-.16.55.55,0,0,0-.4-.18l-.67,0a.58.58,0,0,0-.59.55l0,.7A3.42,3.42,0,0,0,10.64,3.55Z"/><path class="cls-15" d="M10.12,6.88A.77.77,0,0,0,9.5,6l-.78-.14a.24.24,0,0,0-.27.19L7.86,9.44l.74.13v0l1.24,2.2V14.2l.91.11V11.7s0-.06,0-.08a.6.6,0,0,0-.06-.19l-1-1.85.29-1.64Z"/><polygon class="cls-15" points="8.85 6.86 10.57 8.57 10.58 8.56 10.58 8.58 12.73 8.48 12.7 7.65 10.9 7.73 9.54 6.42 8.85 6.86"/><path class="cls-16" d="M6.43,14.74,5.17,13.48,5.64,13l1,1.2a.29.29,0,0,1,0,.38Z"/><polygon class="cls-4" points="12.7 7.65 13.83 7.59 13.5 8.46 12.73 8.48 12.7 7.65"/><path class="cls-8" d="M10.75,11.62a.6.6,0,0,0-.06-.19l-1-1.85L9.75,9,8,8.65l-.14.79.74.13v0l1.24,2.2V14.2l.91.23V11.7S10.75,11.64,10.75,11.62Z"/><circle class="cls-4" cx="9.56" cy="4.35" r="0.34"/><path class="cls-17" d="M11.63,14.86H9.85V14.2l1.53.18a.29.29,0,0,1,.25.28Z"/></svg>